<svg xmlns="http://www.w3.org/2000/svg" viewBox="0 0 104.967 85">
  <defs>
    <style>
      .cls-1 {
        fill: #faa831;
      }

      .cls-2 {
        fill: #fff;
      }
    </style>
  </defs>
  <g id="account_balance" transform="translate(-579 -320)">
    <g id="account-balance" transform="translate(579 287.187)">
      <path id="Path_1336" data-name="Path 1336" class="cls-1" d="M62.044,156.6H28.353a6.905,6.905,0,0,1-6.9-6.9V124.289a1.521,1.521,0,0,0-1.521-1.521H2.847A2.85,2.85,0,0,0,0,125.615v39.745a2.85,2.85,0,0,0,2.847,2.846h4.58a1.524,1.524,0,0,1,1.241.641l7.73,10.91a1.522,1.522,0,0,0,2.483,0l7.729-10.91a1.525,1.525,0,0,1,1.242-.642H60.718a2.85,2.85,0,0,0,2.847-2.846v-7.242A1.521,1.521,0,0,0,62.044,156.6Z" transform="translate(0 -62.586)"/>
      <path id="Path_1337" data-name="Path 1337" class="cls-1" d="M160.611,32.813H89.373a3.86,3.86,0,0,0-3.855,3.855V85.592a3.86,3.86,0,0,0,3.855,3.855h40.458a1.523,1.523,0,0,1,1.241.642l10.088,14.239a1.522,1.522,0,0,0,2.483,0L153.73,90.089a1.525,1.525,0,0,1,1.242-.642h5.639a3.86,3.86,0,0,0,3.855-3.855V36.668A3.859,3.859,0,0,0,160.611,32.813ZM128.74,73.461v3.392a.637.637,0,0,1-.637.637H123.22a.637.637,0,0,1-.637-.637V73.336A13.547,13.547,0,0,1,116,69.671l-.949-1a.637.637,0,0,1,.025-.9l3.547-3.356a.637.637,0,0,1,.9.025l.948,1a7.732,7.732,0,0,0,5.329,2.13c1.567,0,4.218-.414,4.218-1.965.011-1.34-.569-1.878-4.672-3.121-3.509-1.063-9.381-2.842-9.381-9.453,0-3.7,2.524-6.649,6.624-7.783V41.613a.637.637,0,0,1,.637-.637H128.1a.637.637,0,0,1,.637.637v3.3a14.8,14.8,0,0,1,5.72,2.038l1.159.749a.636.636,0,0,1,.189.881l-2.649,4.1a.638.638,0,0,1-.881.189l-1.16-.749a9.464,9.464,0,0,0-4.582-1.222c-1.642,0-4.42.449-4.42,2.133,0,1.583.657,2.243,5.01,3.561,3.622,1.1,9.1,2.755,9.045,9.038C136.17,69.619,133.339,72.584,128.74,73.461Z" transform="translate(-59.499)"/>
    </g>
    <rect id="Rectangle_619" data-name="Rectangle 619" class="cls-1" width="34" height="51" transform="translate(626 323)"/>
    <g id="nigeria-naira-currency-symbol" transform="translate(631 337.769)">
      <path id="Path_241" data-name="Path 241" class="cls-2" d="M26.736,57.83h-3.79V54.187h3.79a1.031,1.031,0,1,0,0-2.062h-3.79V47.07a2.439,2.439,0,0,0-.433-1.609,1.388,1.388,0,0,0-1.13-.46,1.33,1.33,0,0,0-1.088.457,2.467,2.467,0,0,0-.428,1.613v5.055h-7.13L9.7,47.538c-.259-.409-.5-.793-.74-1.161a5.164,5.164,0,0,0-.618-.8,1.977,1.977,0,0,0-.6-.423A2,2,0,0,0,6.917,45a2.086,2.086,0,0,0-1.165.351,1.929,1.929,0,0,0-.763.883,4.52,4.52,0,0,0-.2,1.546v4.343H1.031a1.031,1.031,0,0,0,0,2.062H4.784v3.643H1.031a1.031,1.031,0,0,0,0,2.062H4.784v5.771a2.386,2.386,0,0,0,.448,1.593,1.394,1.394,0,0,0,1.131.476,1.417,1.417,0,0,0,1.123-.477,2.332,2.332,0,0,0,.456-1.591V59.892h6.452l3.491,5.354c.243.354.493.711.743,1.061a5.022,5.022,0,0,0,.731.823,2.277,2.277,0,0,0,.745.456,2.753,2.753,0,0,0,.93.146c.944,0,1.911-.289,1.911-2.433V59.892h3.79a1.031,1.031,0,0,0,0-2.062Zm-6.87-3.643V57.83H16.507L14.1,54.187ZM7.942,50l1.385,2.124H7.942Zm0,7.829V54.187h2.731l2.376,3.643Zm11.925,5.085-2-3.022h2Z" transform="translate(0 -45.001)"/>
    </g>
  </g>
</svg>
