<svg xmlns="http://www.w3.org/2000/svg" width="21.251" height="20.621" viewBox="0 0 21.251 20.621">
  <g id="bank" transform="translate(-2.154 -1.934)">
    <path id="Path_1356" data-name="Path 1356" d="M7.744,9.305H8.25a.621.621,0,0,0-.006.081v9.863H7.9a.628.628,0,1,0,0,1.255H26.521a.628.628,0,1,0,0-1.255h-.344V9.386a.622.622,0,0,0-.006-.081h.507a1.093,1.093,0,0,0,.65-1.972L17.584.123a.628.628,0,0,0-.747,0L7.093,7.333a1.094,1.094,0,0,0,.65,1.972Zm10.031,9.944H16.648V9.386a.622.622,0,0,0-.006-.081H17.78a.622.622,0,0,0-.006.081v9.863Zm-4.765,0H11.882V9.386a.621.621,0,0,0-.006-.081h1.139a.622.622,0,0,0-.006.081Zm-3.51,0V10.014h1.127v9.236Zm4.765,0V10.014h1.127v9.236Zm4.765,0V10.014h1.127v9.236Zm4.765,0V10.014h1.127v9.236ZM22.54,9.386v9.863H21.412V9.386a.622.622,0,0,0-.006-.081h1.139A.621.621,0,0,0,22.54,9.386ZM17.211,1.409,26.187,8.05H8.235l8.976-6.641Z" transform="translate(-4.431 2)" fill="#625f5f" stroke="#fff" stroke-width="0.1"/>
  </g>
</svg>
