<svg xmlns="http://www.w3.org/2000/svg" id="bank" width="17.598" height="17.598" viewBox="0 0 17.598 17.598">
    <defs>
        <style>
            .cls-1{fill:#191919}
        </style>
    </defs>
    <g id="Group_1148" data-name="Group 1148">
        <g id="Group_1147" data-name="Group 1147">
            <path id="Path_1542" d="M17.2 7.2a.4.4 0 0 0 .4-.4V5.2a.4.4 0 0 0-.2-.344L9.578.211 9.568.2a1.551 1.551 0 0 0-1.549.01L.2 4.857A.4.4 0 0 0 0 5.2v1.6a.4.4 0 0 0 .4.4h1.2v7.2A1.6 1.6 0 0 0 0 16v1.2a.4.4 0 0 0 .4.4h16.8a.4.4 0 0 0 .4-.4V16a1.6 1.6 0 0 0-1.6-1.6V7.2zm-.4 8.8v.8H.8V16a.8.8 0 0 1 .8-.8H16a.8.8 0 0 1 .8.8zM2.4 14.4V7.2H4v7.2zm2.4 0V7.2h2.4v7.2zm3.2 0V7.2h1.6v7.2zm2.4 0V7.2h2.4v7.2zm3.2 0V7.2h1.6v7.2zM.8 6.4v-.973L8.416.9a.761.761 0 0 1 .76 0L16.8 5.427V6.4z" class="cls-1" data-name="Path 1542"/>
        </g>
    </g>
</svg>
