<svg xmlns="http://www.w3.org/2000/svg" viewBox="0 0 21.165 21.762">
  <defs>
    <style>
      .cls-1 {
        fill: #fefefe;
      }
    </style>
  </defs>
  <g id="check-form" transform="translate(-5.963)">
    <path id="Path_1322" data-name="Path 1322" class="cls-1" d="M22.321,11.538V1.753H7.716V20.01h6.719a.876.876,0,1,1,0,1.753H6.839a.879.879,0,0,1-.876-.876V.876A.879.879,0,0,1,6.839,0H23.2a.879.879,0,0,1,.876.876V11.538a.876.876,0,1,1-1.753,0Zm4.513,2.132a.878.878,0,0,0-1.241.073L20.788,19.09l-2.41-2.322a.878.878,0,1,0-1.212,1.271l3.067,2.95a.861.861,0,0,0,.613.248h.029a.876.876,0,0,0,.613-.292l5.4-6.018A.881.881,0,0,0,26.835,13.671ZM19.108,5.112H11.221a.876.876,0,1,0,0,1.753h7.887a.876.876,0,0,0,0-1.753Zm.876,5.7a.879.879,0,0,0-.876-.876H11.221a.876.876,0,1,0,0,1.753h7.887A.879.879,0,0,0,19.984,10.808Zm-8.763,3.8a.876.876,0,1,0,0,1.753h2.337a.876.876,0,0,0,0-1.753Z"/>
  </g>
</svg>
