<svg xmlns="http://www.w3.org/2000/svg" id="wallet-4" width="19.366" height="17.437" viewBox="0 0 19.366 17.437">
    <defs>
        <style>
            .cls-1{fill:#fff}
        </style>
    </defs>
    <path id="Path_1383" d="M18.282 42.133h-.461v-2.9a2.1 2.1 0 0 0-2.049-2.15h-.425v-1.079a1.418 1.418 0 0 0-1.382-1.45H1.68A1.722 1.722 0 0 0 0 36.287v14.25a1.418 1.418 0 0 0 1.382 1.45h14.394a2.1 2.1 0 0 0 2.049-2.15v-2.908h.461a1.109 1.109 0 0 0 1.08-1.133v-2.529a1.115 1.115 0 0 0-1.084-1.134zM1.68 35.55h12.289a.44.44 0 0 1 .431.45v1.083H1.68a.766.766 0 0 1 0-1.529zm15.188 14.283a1.126 1.126 0 0 1-1.1 1.15H1.378a.441.441 0 0 1-.429-.45V37.9a1.608 1.608 0 0 0 .731.175h14.092a1.126 1.126 0 0 1 1.1 1.15v2.9h-3.257a1.109 1.109 0 0 0-1.08 1.133V45.8a1.109 1.109 0 0 0 1.08 1.133h3.253v2.9zm1.541-4.033a.129.129 0 0 1-.127.133h-4.663a.129.129 0 0 1-.127-.133v-2.533a.131.131 0 0 1 .127-.133h4.663a.131.131 0 0 1 .127.133V45.8z" class="cls-1" data-name="Path 1383" transform="translate(0 -34.55)"/>
</svg>
