<svg xmlns="http://www.w3.org/2000/svg" viewBox="0 0 31.515 31.5">
  <defs>
    <style>
      .cls-1 {
        fill: #121010;
      }
    </style>
  </defs>
  <g id="Group_309" data-name="Group 309" transform="translate(-107.038 -467)">
    <g id="_810375" data-name="810375" transform="translate(107.038 466.886)">
      <g id="Group_305" data-name="Group 305" transform="translate(0 0.114)">
        <g id="Group_304" data-name="Group 304" transform="translate(0 0)">
          <path id="Path_877" data-name="Path 877" d="M28.36,1.686V6.421A15.754,15.754,0,0,0,.783,20.77a.525.525,0,0,0,.5.362.508.508,0,0,0,.163-.027.525.525,0,0,0,.336-.662A14.706,14.706,0,0,1,27.826,7.462H22.059v1.05h7.352V1.686H28.36Z" transform="translate(0 -0.114)"/>
        </g>
      </g>
      <g id="Group_307" data-name="Group 307" transform="translate(2.104 10.611)">
        <g id="Group_306" data-name="Group 306">
          <path id="Path_878" data-name="Path 878" d="M60.687,160.377a.525.525,0,0,0-1,.327,14.707,14.707,0,0,1-26.045,12.98h5.767v-1.05H32.059v6.827h1.05v-4.734a15.754,15.754,0,0,0,27.578-14.349Z" transform="translate(-32.059 -160.029)"/>
        </g>
      </g>
    </g>
    <g id="nigeria-naira-currency-symbol" transform="translate(116.478 432.769)">
      <path id="Path_876" data-name="Path 876" class="cls-1" d="M13.209,51.339H11.336v-1.8h1.873a.509.509,0,1,0,0-1.019H11.336v-2.5a1.2,1.2,0,0,0-.214-.8A.686.686,0,0,0,10.564,45a.657.657,0,0,0-.538.226,1.219,1.219,0,0,0-.212.8v2.5H6.292l-1.5-2.266c-.128-.2-.249-.392-.366-.574a2.551,2.551,0,0,0-.305-.4.977.977,0,0,0-.3-.209A.988.988,0,0,0,3.417,45a1.031,1.031,0,0,0-.576.174.953.953,0,0,0-.377.436,2.233,2.233,0,0,0-.1.764v2.146H.509a.509.509,0,0,0,0,1.019H2.363v1.8H.509a.509.509,0,1,0,0,1.019H2.363v2.851A1.179,1.179,0,0,0,2.585,56a.689.689,0,0,0,.559.235A.7.7,0,0,0,3.7,56a1.152,1.152,0,0,0,.225-.786V52.358H7.111L8.836,55c.12.175.244.351.367.524a2.482,2.482,0,0,0,.361.407,1.125,1.125,0,0,0,.368.225,1.36,1.36,0,0,0,.459.072c.466,0,.944-.143.944-1.2V52.358h1.873a.509.509,0,0,0,0-1.019Zm-3.394-1.8v1.8H8.155l-1.189-1.8ZM3.924,47.471l.684,1.049H3.924Zm0,3.868v-1.8H5.273l1.174,1.8Zm5.891,2.512-.986-1.493h.986Z" transform="translate(0 0)"/>
    </g>
  </g>
</svg>
