<svg xmlns="http://www.w3.org/2000/svg" viewBox="0 0 22.473 20.063">
  <defs>
    <style>
      .cls-1 {
        fill: #191919;
        stroke: #fff;
        stroke-width: 0.5px;
      }
    </style>
  </defs>
  <g id="home_2" transform="translate(0.296 0.269)">
    <g id="Group_814" data-name="Group 814" transform="translate(0 0)">
      <g id="Group_813" data-name="Group 813">
        <path id="Path_1281" data-name="Path 1281" class="cls-1" d="M21.692,35.517,11.3,27.908a.57.57,0,0,0-.673,0L.233,35.517a.57.57,0,0,0,.673.919l10.056-7.363,10.056,7.363a.57.57,0,0,0,.673-.919Z" transform="translate(0.001 -27.798)"/>
      </g>
    </g>
    <g id="Group_816" data-name="Group 816" transform="translate(2.417 8.768)">
      <g id="Group_815" data-name="Group 815">
        <path id="Path_1282" data-name="Path 1282" class="cls-1" d="M72.973,232.543a.57.57,0,0,0-.57.57v9.068H67.846v-4.95a2.849,2.849,0,1,0-5.7,0v4.95H57.591v-9.068a.57.57,0,0,0-1.139,0v9.637a.57.57,0,0,0,.57.57h5.7a.569.569,0,0,0,.567-.525.43.43,0,0,0,0-.044v-5.519a1.709,1.709,0,1,1,3.418,0v5.519a.417.417,0,0,0,0,.044.569.569,0,0,0,.567.526h5.7a.57.57,0,0,0,.57-.57v-9.637A.57.57,0,0,0,72.973,232.543Z" transform="translate(-56.452 -232.543)"/>
      </g>
    </g>
  </g>
</svg>
