<svg id="icon_3_" data-name="icon (3)" xmlns="http://www.w3.org/2000/svg" viewBox="0 0 61.183 58.471">
  <defs>
    <style>
      .cls-1 {
        fill: #e2e1e1;
      }
    </style>
  </defs>
  <path id="Path_843" data-name="Path 843" class="cls-1" d="M44.771,22.89l9.218,3.386L46.322,47.147c-.717,1.963-4.608,8.106-7.317,9.359L38.348,58.3a1.128,1.128,0,0,1-1.054.739,1.162,1.162,0,0,1-.387-.069,1.125,1.125,0,0,1-.667-1.444l.622-1.7c-1.375-2.671-.349-10.427.253-12.068ZM58.11.806c-2.535-.928-5.5.99-6.351,3.307L46.208,19.239l9.215,3.381L60.968,7.5C61.666,5.6,60.65,1.736,58.11.806Zm-16.678,21.3a2.246,2.246,0,0,0,2.891-1.327l5.858-15.8a2.249,2.249,0,0,0-4.218-1.561l-5.858,15.8A2.246,2.246,0,0,0,41.433,22.108ZM32,51.736a8.741,8.741,0,0,0-2.578-1.827,6.729,6.729,0,0,0-2.7-.485c-.074,0-.16,0-.246,0a3.5,3.5,0,0,0-2.714-2.3,5.491,5.491,0,0,0-4.235,1.124c.088-.5.234-1.1.342-1.53a9.86,9.86,0,0,0,.435-4.165,2.4,2.4,0,0,0-2.185-1.927c-2.786-.155-5.062,1.344-7.068,2.7C8.95,44.747,7.6,45.6,6.255,45.115c-1.64-.583-1.805-5.024-1.016-8.979.705-3.563,2.018-10.2,5.382-13.208,1.133-1.014,2.774-2.111,4.122-1.578,1.585.622,2.9,3.233,3.187,6.344a2.391,2.391,0,1,0,4.761-.447c-.473-5.069-2.85-9.034-6.2-10.351-2.006-.779-5.2-.99-9.062,2.47C3.223,23.131,1.669,29.518.543,35.206-.021,38.047-1.4,47.473,4.648,49.622c3.682,1.313,6.673-.713,9.077-2.334.44-.3.873-.588,1.294-.849-.4,1.734-.648,3.589.4,5.153,1.561,2.348,3.768,2.6,6.556.768.108-.069.232-.151.349-.232a3.245,3.245,0,0,0,1.545,1.542,6.322,6.322,0,0,0,2.74.536,3.8,3.8,0,0,1,.87.074,4.152,4.152,0,0,1,1.231.93,15.214,15.214,0,0,0,1.315,1.138,2.391,2.391,0,0,0,2.865-3.828A11.3,11.3,0,0,1,32,51.736Z" transform="translate(0 -0.567)"/>
</svg>
