<svg xmlns="http://www.w3.org/2000/svg" viewBox="0 0 13.682 13.379"><defs><style>.a{fill:none;stroke:#242323;stroke-width:0.5px;}</style></defs><g transform="translate(0.25 -5.515)"><g transform="translate(0 5.8)"><path class="a" d="M12.226,8.838H8.151L9.6,6.463a.436.436,0,1,0-.745-.454L7.128,8.838H6.054L4.33,6.009a.436.436,0,1,0-.745.454L5.032,8.838H.956A.957.957,0,0,0,0,9.794v7.894a.957.957,0,0,0,.956.956H12.226a.957.957,0,0,0,.956-.956V9.794A.957.957,0,0,0,12.226,8.838Zm-2.981,7.7a.52.52,0,0,1-.52.52H2.072a.52.52,0,0,1-.52-.52v-5.6a.52.52,0,0,1,.52-.52H8.724a.52.52,0,0,1,.52.52Zm1.924-.166a.9.9,0,1,1,.9-.9A.9.9,0,0,1,11.168,16.375Zm0-3.463a.9.9,0,1,1,.9-.9A.9.9,0,0,1,11.168,12.912Z" transform="translate(0 -5.8)"/></g></g></svg>