<svg xmlns="http://www.w3.org/2000/svg" width="24.451" height="31.595" viewBox="0 0 24.451 31.595">
    <defs>
        <style>
            .cls-1{fill:#191919;stroke:#fff;stroke-width:.3px}
        </style>
    </defs>
    <g id="thrift" transform="translate(.156 .15)">
        <path id="Path_228" d="M75.16 152.363l.16-.14a.3.3 0 0 0 .064-.064 19.323 19.323 0 0 0 2.656-3.9h.338a1.752 1.752 0 0 0 1.75-1.75v-2.765a1.752 1.752 0 0 0-1.75-1.75H78A9.885 9.885 0 0 0 75.115 138a2.648 2.648 0 0 1 .428-2.171 1.3 1.3 0 0 0-1.264-1.986 5.332 5.332 0 0 0-3.6 1.845 12.176 12.176 0 0 0-1.865-.364.633.633 0 0 0-.147 1.258 11.183 11.183 0 0 1 2.062.447.639.639 0 0 0 .715-.249 4.012 4.012 0 0 1 2.982-1.673.038.038 0 0 1 .038.019.028.028 0 0 1 0 .038 3.919 3.919 0 0 0-.568 3.2.622.622 0 0 0 .236.473 8.578 8.578 0 0 1 2.822 3.991.631.631 0 0 0 .6.434h.817a.485.485 0 0 1 .485.485v2.765a.485.485 0 0 1-.485.485h-.773a.636.636 0 0 0-.607.447 15.317 15.317 0 0 1-2.541 3.857l-.14.121a4.25 4.25 0 0 0-1.456 3.014v.888h-3.639v-.856A.639.639 0 0 0 69 154a.632.632 0 0 0-.492-.16 11.873 11.873 0 0 1-2.778-.038.618.618 0 0 0-.5.153.626.626 0 0 0-.217.479v.888h-3.639v-.275a5.841 5.841 0 0 0-1.574-3.737 9.3 9.3 0 0 1-1.673-2.535c-.006-.006-.006-.013-.013-.026a7.528 7.528 0 0 1-.651-1.743l-.006-.026c0-.006-.006-.013-.006-.019a6.519 6.519 0 0 1-.2-1.737v-.019a8.37 8.37 0 0 1 .1-1.264.631.631 0 1 0-1.245-.211 8.581 8.581 0 0 0-.121 1.462 7.666 7.666 0 0 0 .255 2.126 9.168 9.168 0 0 0 .747 1.992 10.366 10.366 0 0 0 1.9 2.873 4.554 4.554 0 0 1 1.213 2.9v.262a.424.424 0 0 0 .006.083 1.245 1.245 0 0 0 1.232 1.156h3.7a1.24 1.24 0 0 0 1.239-1.239v-.211a13.184 13.184 0 0 0 1.667.026v.185a1.24 1.24 0 0 0 1.239 1.239h3.7a1.24 1.24 0 0 0 1.239-1.239v-.9a3.066 3.066 0 0 1 1.038-2.082z" class="cls-1" data-name="Path 228" transform="translate(-55.982 -125.289)"/>
        <path id="Path_229" d="M56.819 115.1a5.2 5.2 0 1 0 5.2-5.2 5.209 5.209 0 0 0-5.2 5.2zm9.144 0a3.94 3.94 0 1 1-3.94-3.94 3.946 3.946 0 0 1 3.94 3.94z" class="cls-1" data-name="Path 229" transform="translate(-56.766 -102.882)"/>
        <path id="Path_230" d="M181.873 3.627a3.627 3.627 0 1 0-3.627 3.627 3.633 3.633 0 0 0 3.627-3.627zm-6 0a2.363 2.363 0 1 1 2.363 2.363 2.365 2.365 0 0 1-2.359-2.363z" class="cls-1" data-name="Path 230" transform="translate(-167.044)"/>
    </g>
</svg>
