<svg xmlns="http://www.w3.org/2000/svg" width="22.158" height="18.397" viewBox="0 0 22.158 18.397">
    <defs>
        <style>
            .cls-1,.cls-4{fill:none}.cls-1,.cls-2{stroke:#191919;stroke-width:.6px}.cls-2{fill:#fff;stroke-linejoin:round}.cls-3{stroke:none}
        </style>
    </defs>
    <g id="deposit" transform="translate(-.001 .375)">
        <path id="Path_1428" d="M988.4 472.814l6.741-4.405 5.028 4.405z" class="cls-1" data-name="Path 1428" transform="translate(-984.273 -468.409)"/>
        <g id="deposit-2" data-name="deposit" transform="translate(0 3.249)">
            <g id="Group_1140" data-name="Group 1140">
                <g id="Rectangle_712" class="cls-2" data-name="Rectangle 712">
                    <rect width="19.885" height="14.772" class="cls-3" rx="2"/>
                    <rect width="19.285" height="14.172" x=".3" y=".3" class="cls-4" rx="1.7"/>
                </g>
                <g id="Rectangle_713" class="cls-2" data-name="Rectangle 713">
                    <path d="M2.84 0h3.6a.947.947 0 0 1 .947.947v3.786a.947.947 0 0 1-.947.947h-3.6A2.84 2.84 0 0 1 0 2.84 2.84 2.84 0 0 1 2.84 0z" class="cls-3" transform="translate(14.776 4.547)"/>
                    <path d="M2.84.3h3.584a.658.658 0 0 1 .658.658v3.763a.658.658 0 0 1-.658.658H2.84A2.54 2.54 0 0 1 .3 2.84 2.54 2.54 0 0 1 2.84.3z" class="cls-4" transform="translate(14.776 4.547)"/>
                </g>
            </g>
        </g>
    </g>
</svg>
