<svg xmlns="http://www.w3.org/2000/svg" viewBox="0 0 17.939 13.374"><defs><style>.a{fill:#242323;stroke:#fefefe;}</style></defs><g transform="translate(0.501 -81.946)"><g transform="translate(-0.001 82.446)"><g transform="translate(0)"><path class="a" d="M8.468,91.726a1.547,1.547,0,1,0,1.547,1.547A1.547,1.547,0,0,0,8.468,91.726Zm8.287-5.408a10.8,10.8,0,0,0-16.575,0,.773.773,0,0,0,1.184,1,9.257,9.257,0,0,1,14.206,0,.773.773,0,0,0,1.184-.995Zm-8.287-.779a7.72,7.72,0,0,0-5.919,2.766.773.773,0,0,0,1.184,1,6.171,6.171,0,0,1,9.471,0,.773.773,0,0,0,1.184-1A7.722,7.722,0,0,0,8.468,85.539Zm0,3.093a4.631,4.631,0,0,0-3.552,1.659.773.773,0,0,0,1.184,1,3.084,3.084,0,0,1,4.735,0,.773.773,0,0,0,1.184-1A4.631,4.631,0,0,0,8.468,88.633Z" transform="translate(0.001 -82.446)"/></g></g></g></svg>